<svg width="24" height="24" viewBox="0 0 24 24" fill="none" xmlns="http://www.w3.org/2000/svg">
<path d="M8.77148 11.1932H10.1542L9.46517 9.06543L8.77148 11.1932Z" fill="#231916"/>
<path d="M12 0C5.37188 0 0 4.59242 0 10.2537C0 13.9153 2.24531 17.1269 5.625 18.9424C3.94688 25.2123 2.9625 25.6214 9.86719 20.3437C10.5609 20.4511 11.2734 20.5073 12 20.5073C18.6281 20.5073 24 15.9149 24 10.2537C24 4.59242 18.6281 0 12 0ZM5.36719 13.8335C4.16719 13.8335 4.875 12.0282 4.67344 8.65808C4.24219 8.57626 2.91563 8.98027 2.91563 7.92166C2.91563 7.51765 3.22031 7.18524 3.59531 7.18524C6.1125 7.37957 7.81875 6.67383 7.81875 7.92166C7.81875 9.00073 6.54375 8.56603 6.06094 8.65808C5.85469 12.0129 6.5625 13.8335 5.36719 13.8335ZM11.8781 13.721C10.8 14.2529 10.7766 13.0511 10.5187 12.5192H8.40937C8.15156 13.0511 8.12812 14.2529 7.05 13.721C6.23906 13.317 7.55625 11.2611 8.54062 7.93189C8.85469 6.95511 10.0688 6.96022 10.3875 7.93189C11.3859 11.3225 12.6891 13.317 11.8781 13.721ZM13.1531 13.7261C11.9953 13.7261 12.6984 12.018 12.4922 7.94212C12.4922 6.94999 13.9031 6.94999 13.9031 7.94212V12.3504C14.5734 12.4476 16.0359 11.9924 16.0359 13.0357C16.0359 14.1352 14.4609 13.5829 13.1531 13.7261ZM19.5563 13.5062L17.9344 11.1742L17.6953 11.435V13.0715C17.6953 13.4857 17.3859 13.8233 17.0016 13.8233C15.7969 13.8233 16.5187 11.9362 16.3078 7.94212C16.3078 7.52788 16.6172 7.19035 17.0016 7.19035C18.0469 7.19035 17.5969 8.80128 17.6953 9.55304C19.6547 7.50742 19.6078 7.29263 20.0109 7.29263C20.5688 7.29263 20.9062 8.0444 20.5359 8.44841L18.9562 10.1565L20.6625 12.6061C21.2156 13.3937 20.1047 14.2989 19.5563 13.5062Z" fill="#231916"/>
</svg>
