<svg width="24" height="24" viewBox="0 0 24 24" fill="none" xmlns="http://www.w3.org/2000/svg">
<path d="M12 20.0001C11.8684 20.0008 11.7379 19.9756 11.6161 19.9258C11.4943 19.8761 11.3834 19.8028 11.29 19.7101L8.41 16.8301H4C3.73478 16.8301 3.48044 16.7247 3.29291 16.5372C3.10537 16.3496 3 16.0953 3 15.8301V6.83008C3 6.56486 3.10537 6.31051 3.29291 6.12297C3.48044 5.93543 3.73478 5.83008 4 5.83008H20C20.2652 5.83008 20.5196 5.93543 20.7071 6.12297C20.8946 6.31051 21 6.56486 21 6.83008V15.8301C21 16.0953 20.8946 16.3496 20.7071 16.5372C20.5196 16.7247 20.2652 16.8301 20 16.8301H15.59L12.71 19.7101C12.6166 19.8028 12.5057 19.8761 12.3839 19.9258C12.2621 19.9756 12.1316 20.0008 12 20.0001Z" fill="#9FA4D4"/>
<path d="M20 6.83008V15.8301H15.17L14.59 16.4101L12 19.0001L9.41 16.4101L8.82999 15.8301H4V6.83008H20V6.83008ZM20 4.83008H4C3.46957 4.83008 2.96086 5.04079 2.58578 5.41586C2.21071 5.79094 2 6.29965 2 6.83008V15.8301C2 16.3605 2.21071 16.8692 2.58578 17.2443C2.96086 17.6194 3.46957 17.8301 4 17.8301H8L10.59 20.4101C10.9647 20.7826 11.4716 20.9917 12 20.9917C12.5284 20.9917 13.0353 20.7826 13.41 20.4101L16 17.8301H20C20.5304 17.8301 21.0391 17.6194 21.4142 17.2443C21.7893 16.8692 22 16.3605 22 15.8301V6.83008C22 6.29965 21.7893 5.79094 21.4142 5.41586C21.0391 5.04079 20.5304 4.83008 20 4.83008V4.83008Z" fill="#20232D"/>
</svg>
