<svg width="24" height="24" viewBox="0 0 24 24" fill="none" xmlns="http://www.w3.org/2000/svg">
<path d="M12 5C12.3956 5 12.7822 5.1173 13.1111 5.33707C13.44 5.55683 13.6964 5.86918 13.8477 6.23463C13.9991 6.60009 14.0387 7.00222 13.9616 7.39018C13.8844 7.77814 13.6939 8.13451 13.4142 8.41422C13.1345 8.69392 12.7781 8.88439 12.3902 8.96156C12.0022 9.03873 11.6001 8.99914 11.2346 8.84776C10.8692 8.69639 10.5568 8.44004 10.3371 8.11115C10.1173 7.78225 9.99999 7.39556 9.99999 7C9.99999 6.46957 10.2107 5.96086 10.5858 5.58578C10.9609 5.21071 11.4696 5 12 5ZM12 3C11.2089 3 10.4355 3.23459 9.7777 3.67412C9.11991 4.11364 8.60722 4.73836 8.30447 5.46927C8.00172 6.20017 7.92253 7.00444 8.07687 7.78036C8.23121 8.55629 8.61215 9.26902 9.17156 9.82843C9.73097 10.3878 10.4437 10.7688 11.2196 10.9231C11.9956 11.0775 12.7998 10.9983 13.5307 10.6955C14.2616 10.3928 14.8863 9.88007 15.3259 9.22227C15.7654 8.56448 16 7.79113 16 7C16 5.93913 15.5786 4.92172 14.8284 4.17157C14.0783 3.42142 13.0609 3 12 3Z" fill="#20232D"/>
<path d="M20 20C19.7348 20 19.4804 19.8946 19.2929 19.7071C19.1054 19.5196 19 19.2652 19 19V16.43C19 14.24 16.59 14 15.56 14H8.44C7.44 14 5 14.24 5 16.43V19C5 19.2652 4.89463 19.5196 4.70709 19.7071C4.51956 19.8946 4.26522 20 4 20C3.73478 20 3.48044 19.8946 3.29291 19.7071C3.10537 19.5196 3 19.2652 3 19V16.43C3 13.74 5.14 12 8.44 12H15.56C18.86 12 21 13.74 21 16.43V19C21 19.2652 20.8946 19.5196 20.7071 19.7071C20.5196 19.8946 20.2652 20 20 20Z" fill="#20232D"/>
<path d="M22 8H21V7C21 6.73478 20.8946 6.48043 20.7071 6.29289C20.5196 6.10536 20.2652 6 20 6C19.7348 6 19.4804 6.10536 19.2929 6.29289C19.1054 6.48043 19 6.73478 19 7V8H18C17.7348 8 17.4804 8.10536 17.2929 8.29289C17.1054 8.48043 17 8.73478 17 9C17 9.26522 17.1054 9.51957 17.2929 9.70711C17.4804 9.89464 17.7348 10 18 10H19V11C19 11.2652 19.1054 11.5196 19.2929 11.7071C19.4804 11.8946 19.7348 12 20 12C20.2652 12 20.5196 11.8946 20.7071 11.7071C20.8946 11.5196 21 11.2652 21 11V10H22C22.2652 10 22.5196 9.89464 22.7071 9.70711C22.8946 9.51957 23 9.26522 23 9C23 8.73478 22.8946 8.48043 22.7071 8.29289C22.5196 8.10536 22.2652 8 22 8Z" fill="#20232D"/>
</svg>
