<svg width="106" height="134" viewBox="0 0 106 134" fill="none" xmlns="http://www.w3.org/2000/svg">
<path d="M86.3959 59.7461C84.8358 59.7395 83.3419 59.1117 82.241 58C81.1401 56.8883 80.5221 55.3833 80.5221 53.8143V40.1713C80.5221 23.9578 67.2997 10.908 51.2019 11.9625C44.2354 12.4185 37.7023 15.5227 32.9282 20.6451C28.154 25.7675 25.4964 32.5245 25.4945 39.5452V39.5452V104.234C25.4946 104.248 25.4897 104.262 25.4807 104.272C25.4716 104.283 25.4591 104.29 25.4453 104.292H13.6321C13.6168 104.292 13.6023 104.286 13.5915 104.275C13.5807 104.264 13.5747 104.25 13.5747 104.234V40.2784C13.5747 18.0343 31.5977 -0.436521 53.7169 0.00836052C64.0034 0.223919 73.7961 4.48523 80.9944 11.8781C88.1926 19.271 92.2229 29.2066 92.2207 39.5534L92.2862 53.7978C92.2884 54.5775 92.1376 55.35 91.8427 56.071C91.5477 56.792 91.1143 57.4475 90.5673 58C90.0202 58.5524 89.3702 58.991 88.6545 59.2906C87.9387 59.5902 87.1712 59.745 86.3959 59.7461V59.7461Z" fill="#FF725E"/>
<path d="M86.3959 60.5699C84.8358 60.5634 83.3419 59.9356 82.241 58.8239C81.1401 57.7121 80.5221 56.2071 80.5221 54.6382V40.1713C80.5221 23.9578 67.2997 10.908 51.2019 11.9625C44.2354 12.4185 37.7023 15.5227 32.9282 20.6451C28.154 25.7675 25.4964 32.5245 25.4945 39.5452V39.5452V104.234C25.4946 104.248 25.4897 104.262 25.4807 104.272C25.4716 104.283 25.4591 104.29 25.4453 104.292H13.6321C13.6168 104.292 13.6023 104.286 13.5915 104.275C13.5807 104.264 13.5747 104.25 13.5747 104.234V40.2784C13.5747 18.0343 31.5977 -0.436521 53.7169 0.00836052C64.0034 0.223919 73.7961 4.48523 80.9944 11.8781C88.1926 19.271 92.2229 29.2066 92.2207 39.5534L92.2862 54.6217C92.2884 55.4014 92.1376 56.1738 91.8427 56.8948C91.5477 57.6159 91.1143 58.2714 90.5673 58.8238C90.0202 59.3763 89.3702 59.8149 88.6545 60.1145C87.9387 60.4141 87.1712 60.5689 86.3959 60.5699V60.5699Z" fill="black"/>
<path d="M99.0693 65.6201H6.93068C3.10297 65.6201 0 68.7406 0 72.5899V127.03C0 130.88 3.10297 134 6.93068 134H99.0693C102.897 134 106 130.88 106 127.03V72.5899C106 68.7406 102.897 65.6201 99.0693 65.6201Z" fill="#9FA4D4"/>
<path d="M61.8682 98.0552C61.8814 96.3916 61.4317 94.7574 60.57 93.3371C59.7083 91.9169 58.469 90.7673 56.9919 90.018C55.5148 89.2688 53.8588 88.9498 52.2109 89.097C50.563 89.2443 48.9889 89.852 47.6663 90.8515C46.3438 91.8509 45.3254 93.2024 44.7263 94.7531C44.1271 96.3039 43.9711 97.9923 44.2758 99.6275C44.5805 101.263 45.3337 102.78 46.4505 104.007C47.5672 105.235 49.003 106.124 50.5957 106.574V110.545H55.3963V106.574C57.252 106.059 58.8892 104.948 60.0579 103.41C61.2265 101.872 61.8623 99.991 61.8682 98.0552V98.0552Z" fill="black"/>
</svg>
