<svg width="24" height="24" viewBox="0 0 24 24" fill="none" xmlns="http://www.w3.org/2000/svg">
<path d="M13.9399 15.4702C13.2418 15.466 12.557 15.2792 11.9535 14.9283C11.3501 14.5775 10.8489 14.0748 10.4999 13.4702C10.3979 13.2447 10.3833 12.9893 10.4588 12.7535C10.5342 12.5177 10.6945 12.3183 10.9085 12.1939C11.1225 12.0695 11.3751 12.0288 11.6173 12.0799C11.8596 12.1309 12.0743 12.27 12.2199 12.4702C12.3747 12.7338 12.5878 12.9584 12.843 13.1267C13.0981 13.295 13.3884 13.4026 13.6916 13.4413C13.9949 13.4799 14.3029 13.4485 14.5921 13.3495C14.8813 13.2505 15.1439 13.0866 15.3599 12.8702L18.5399 9.69025C18.7258 9.5045 18.8733 9.28392 18.974 9.04112C19.0746 8.79833 19.1265 8.53807 19.1265 8.27524C19.1265 8.01241 19.0746 7.75217 18.974 7.50937C18.8733 7.26657 18.7258 7.04599 18.5399 6.86024C18.1574 6.49877 17.6511 6.29736 17.1249 6.29736C16.5986 6.29736 16.0923 6.49877 15.7099 6.86024L13.5899 9.00024C13.4025 9.1865 13.1491 9.29103 12.8849 9.29103C12.6207 9.29103 12.3672 9.1865 12.1799 9.00024C11.9936 8.81288 11.8891 8.55943 11.8891 8.29524C11.8891 8.03106 11.9936 7.7776 12.1799 7.59024L14.2999 5.47025C15.0625 4.74277 16.0759 4.33691 17.1299 4.33691C18.1838 4.33691 19.1973 4.74277 19.9599 5.47025C20.3318 5.84174 20.6268 6.28289 20.8281 6.76848C21.0294 7.25407 21.133 7.77459 21.133 8.30025C21.133 8.82591 21.0294 9.34641 20.8281 9.832C20.6268 10.3176 20.3318 10.7588 19.9599 11.1302L16.7699 14.3102C16.0174 15.0565 14.9996 15.4737 13.9399 15.4702V15.4702Z" fill="#20232D"/>
<path d="M6.86984 19.7098C6.3444 19.7102 5.82402 19.6071 5.33844 19.4063C4.85286 19.2056 4.41161 18.9111 4.03986 18.5398C3.66795 18.1683 3.3729 17.7271 3.1716 17.2415C2.9703 16.7559 2.8667 16.2354 2.8667 15.7098C2.8667 15.1841 2.9703 14.6636 3.1716 14.178C3.3729 13.6924 3.66795 13.2513 4.03986 12.8798L7.22986 9.69977C7.99079 8.97295 9.00256 8.56738 10.0548 8.56738C11.1071 8.56738 12.1189 8.97295 12.8799 9.69977C13.0742 9.89147 13.2485 10.1026 13.3998 10.3298C13.5436 10.5514 13.5938 10.821 13.5395 11.0796C13.4852 11.3382 13.3307 11.5647 13.1098 11.7098C12.8894 11.8545 12.6207 11.9063 12.3622 11.8538C12.1038 11.8014 11.8765 11.649 11.7299 11.4298C11.6542 11.3177 11.5671 11.2138 11.4698 11.1198C11.2841 10.9338 11.0635 10.7863 10.8207 10.6857C10.5779 10.585 10.3177 10.5332 10.0548 10.5332C9.79201 10.5332 9.53177 10.585 9.28897 10.6857C9.04617 10.7863 8.82561 10.9338 8.63986 11.1198L5.45984 14.2998C5.27389 14.4855 5.12637 14.7061 5.02573 14.9489C4.92508 15.1917 4.87326 15.4519 4.87326 15.7148C4.87326 15.9776 4.92508 16.2379 5.02573 16.4807C5.12637 16.7234 5.27389 16.944 5.45984 17.1298C5.84229 17.4913 6.3486 17.6926 6.87485 17.6926C7.4011 17.6926 7.9074 17.4913 8.28986 17.1298L10.4099 15.0098C10.5972 14.8235 10.8507 14.719 11.1148 14.719C11.379 14.719 11.6325 14.8235 11.8199 15.0098C12.0061 15.1971 12.1106 15.4506 12.1106 15.7148C12.1106 15.979 12.0061 16.2324 11.8199 16.4198L9.69986 18.5398C9.32811 18.9111 8.88683 19.2056 8.40125 19.4063C7.91566 19.6071 7.39529 19.7102 6.86984 19.7098Z" fill="#20232D"/>
</svg>
